<svg x="0" y="0" viewBox="0 0 261 50" version="1.1" xmlns="http://www.w3.org/2000/svg" xmlns:xlink="http://www.w3.org/1999/xlink">
    <defs>
        <linearGradient x1="9.24928" y1="5.28938" x2="56.07484" y2="60.03475" gradientUnits="userSpaceOnUse" id="color-1">
            <stop offset="0.41" stop-color="#000000" stop-opacity="0.61"/>
            <stop offset="1" stop-color="#000000" stop-opacity="0"/>
        </linearGradient>
        <filter id="dropshadow">
            <feColorMatrix type="matrix" values="0 0 0 0 .25  0 0 0 0 .15  0 0 0 0 .1  0 0 0 .8 0"/>
            <feOffset dx="0" dy="1"/>
            <feGaussianBlur stdDeviation="0.6"/>
            <feComposite in="SourceGraphic"/>
        </filter>
    </defs>
    <g fill="none" stroke="none" stroke-width="none" stroke-linecap="butt" stroke-linejoin="miter" stroke-miterlimit="none" stroke-dasharray="" stroke-dashoffset="0" font-family="none" font-weight="normal" font-size="none" text-anchor="start" mix-blend-mode="normal">
        <g fill="#ffffff" stroke="none" stroke-width="1" stroke-miterlimit="4" font-family="&quot;Open Sans&quot;, sans-serif" font-size="14">
            <g/>
        </g><g fill="#ffffff" stroke="none" stroke-width="1" stroke-miterlimit="4" font-family="&quot;Open Sans&quot;, sans-serif" font-size="14">
            <g/>
        </g>

        <circle cx="23" cy="24" r="21" fill="#6c8c9e" stroke="white" stroke-width="2"/>

        <path d="M33.89587,9.99554l10.8721,10.8721c0.15283,1.02191 0.23203,2.06788 0.23203,3.13236c0,11.59798 -9.40202,21 -21,21c-1.65286,0 -3.26112,-0.19095 -4.80392,-0.552l-2.48699,-2.48699c-0.53374,-0.53374 -0.41398,-1.22557 0.37274,-1.80624l0.61865,-0.46399l0.8175,0.44189c0.22095,0.12052 0.41907,0.26842 0.57569,0.42504l0.73061,0.73061l0.24032,-0.38233l0.82266,0.82266c0,0 0,0 0.00001,0l-0.82266,-0.82266c0.36309,-0.57256 0.63791,-1.11423 0.85027,-1.75819c0,0 -5.15809,-5.15809 -5.15809,-5.15809c-0.09596,-0.09596 -0.15531,-0.22853 -0.15531,-0.37496c0,-0.10687 0.03161,-0.20635 0.086,-0.28961l-6.22832,-6.22832l2.0769,-0.24304c2.23156,-0.26514 3.20373,-0.59656 4.66198,-1.61291c0.501,-0.3403 1.37004,-1.0729 2.20048,-1.82233l-9.1286,-9.1286c-0.10824,-0.10824 0.19924,-0.38131 1.16141,-1.06858c1.45825,-1.01635 2.60717,-2.4967 2.60717,-3.3142c0,-0.46399 0.30933,-0.46399 0.99426,-0.02209c0.59656,0.37561 6.78306,0.95007 7.468,0.68493c0.48608,-0.17676 0.48608,-1.34777 0.04419,-2.23156c-0.17676,-0.33142 -0.33142,-0.68493 -0.33142,-0.72912c0,-0.11047 0.77331,0.04419 1.39196,0.28723c0.24304,0.08838 0.64075,-0.30933 1.30359,-1.2373l0.95007,-1.36987l5.3815,5.3815c0.12295,-0.00525 0.24277,-0.01111 0.35936,-0.01755c0,0 -1.40966,-1.40966 -1.40966,-1.40966c-0.09596,-0.09596 -0.15531,-0.22853 -0.15531,-0.37496c0,0 0.53027,0.53027 0.53027,0.53027c0,0 0.00001,0 0.00001,0l-0.53027,-0.53027c0,-0.29286 0.2374,-0.53026 0.53026,-0.53027l0,0c0,0 0.00001,0 0.00001,0c0.08172,0 0.15913,0.01849 0.22826,0.05151c-0.03302,-0.06914 -0.05151,-0.14654 -0.05151,-0.22827c0,-0.29286 0.23741,-0.53027 0.53027,-0.53027l0.00001,0.00001c0.14643,0 0.27899,0.05935 0.37495,0.15531l0.00275,0.00275c-0.00091,-0.00092 -0.00182,-0.00184 -0.00274,-0.00276l2.46704,2.46704c0.39201,-0.19449 0.73784,-0.3019 0.78152,-0.25822z" fill="url(#color-1)" stroke-width="1" stroke-miterlimit="10" font-family="sans-serif" font-size="12"/>
        <path d="M24.85915,5.28938l0.13257,5.34691l1.81176,0.04419c3.22582,0.08838 5.54576,-0.06628 6.29698,-0.4198c0.3977,-0.19885 0.75122,-0.30933 0.79541,-0.26514c0.04419,0.04419 0.3977,0.72912 0.79541,1.50244c0.77331,1.54663 2.27575,3.29211 3.49096,4.04332c0.44189,0.26514 0.66284,0.53027 0.53027,0.57446c-0.33142,0.11047 -4.08751,-1.85595 -5.30272,-2.78393c-1.34777,-1.01635 -1.83386,-1.12683 -5.50157,-1.30359c-3.02697,-0.13257 -3.15954,-0.11047 -3.15954,0.28723c0,0.37561 0.24304,0.46399 1.72338,0.66284c3.13744,0.4198 4.66198,1.56872 4.86083,3.62353c0.11047,1.2594 -0.22095,2.43041 -0.99426,3.3363c-0.8396,0.99426 -1.76757,1.36987 -3.3142,1.39196l-1.36987,0.02209l1.03845,1.06054c2.69555,2.78393 7.82151,6.34117 9.1251,6.34117c0.64075,0 0.70703,0.4198 0.08838,0.57446c-1.08264,0.26514 -3.27001,-0.04419 -4.41893,-0.64075c-1.14892,-0.57446 -1.81176,-1.2373 -4.83873,-4.75035c-0.97217,-1.12683 -1.85595,-2.03271 -1.94433,-2.03271c-0.08838,0 -0.17676,2.14318 -0.17676,4.75035c0,3.84447 0.06628,4.90502 0.35351,5.63414c0.48608,1.2373 1.83386,2.01062 3.734,2.16528c0.79541,0.04419 1.43615,0.19885 1.43615,0.30933c0,0.11047 -0.4198,0.3977 -0.92798,0.61865c-1.12683,0.50818 -2.87231,0.57446 -4.08751,0.13257c-1.03845,-0.37561 -1.12683,-0.28723 -1.70129,1.74548c-1.30359,4.41893 -3.84447,6.45164 -6.27489,4.9713c-0.90588,-0.55237 -0.90588,-1.39196 0.02209,-2.0769l0.61865,-0.46399l0.8175,0.44189c0.48608,0.26514 0.86169,0.66284 0.92798,0.99426l0.13257,0.55237l0.48608,-0.77331c1.14892,-1.81176 1.41406,-3.3142 1.61291,-8.7274c0.22095,-6.80516 0.24304,-10.05308 0.04419,-10.03098c-0.11047,0 -1.12683,1.10473 -2.27575,2.43041c-2.16528,2.51879 -4.24218,4.17589 -5.23644,4.17589c-0.30933,0 -1.48034,-0.37561 -2.65136,-0.8396l-2.09899,-0.8175l2.0769,-0.24304c2.23156,-0.26514 3.20373,-0.59656 4.66198,-1.61291c1.17102,-0.79541 4.35265,-3.734 4.35265,-4.02123c0,-0.11047 -0.48608,-0.19885 -1.08264,-0.19885c-1.30359,0 -2.36413,-0.4198 -3.15954,-1.2594c-0.77331,-0.8175 -1.06054,-1.61291 -1.06054,-3.02697c0,-1.34777 0.57446,-2.40832 1.6571,-3.02697c0.86169,-0.50818 3.07116,-1.08264 4.1317,-1.08264c0.70703,0 0.8396,-0.06628 0.8396,-0.46399c0,-0.46399 -0.04419,-0.46399 -3.40258,-0.37561c-2.9165,0.06628 -3.46886,0.15466 -3.99914,0.50818c-1.41406,1.01635 -1.83386,1.2373 -3.13744,1.6792c-0.75122,0.24304 -1.61291,0.4198 -1.87805,0.37561c-0.4198,-0.04419 -0.26514,-0.24304 0.97217,-1.12683c1.45825,-1.01635 2.60717,-2.4967 2.60717,-3.3142c0,-0.46399 0.30933,-0.46399 0.99426,-0.02209c0.59656,0.37561 6.78306,0.95007 7.468,0.68493c0.48608,-0.17676 0.48608,-1.34777 0.04419,-2.23156c-0.17676,-0.33142 -0.33142,-0.68493 -0.33142,-0.72912c0,-0.11047 0.77331,0.04419 1.39196,0.28723c0.24304,0.08838 0.64075,-0.30933 1.30359,-1.2373z M21.87637,13.72954l-1.03845,0c-2.16528,0.02209 -3.20373,0.90588 -3.3363,2.87231c-0.19885,2.60717 0.77331,3.49096 3.66772,3.35839l0.70703,-0.04419z M25.23476,14.10515c-0.48608,0.08838 -0.50818,0.13257 -0.44189,3.00488l0.06628,2.9165l1.03845,0.17676c1.48034,0.28723 2.4746,-0.22095 2.96069,-1.52453c0.55237,-1.45825 0.13257,-3.51305 -0.8396,-4.1538c-0.57446,-0.35351 -2.01062,-0.57446 -2.78393,-0.4198z M29.03504,8.86871c0,-0.29286 0.23741,-0.53027 0.53027,-0.53027c0.08173,0 0.15913,0.01849 0.22827,0.05151c-0.03302,-0.06913 -0.05151,-0.14654 -0.05151,-0.22827c0,-0.29286 0.23741,-0.53027 0.53027,-0.53027c0.29286,0 0.53027,0.23741 0.53027,0.53027c0,0.08173 -0.01849,0.15913 -0.05151,0.22827c0.06913,-0.03302 0.14654,-0.05151 0.22827,-0.05151c0.29286,0 0.53027,0.23741 0.53027,0.53027c0,0.29286 -0.23741,0.53027 -0.53027,0.53027c-0.08173,0 -0.15913,-0.01849 -0.22827,-0.05151c0.03302,0.06913 0.05151,0.14654 0.05151,0.22827c0,0.29286 -0.23741,0.53027 -0.53027,0.53027c-0.29286,0 -0.53027,-0.23741 -0.53027,-0.53027c0,-0.08173 0.01849,-0.15913 0.05151,-0.22827c-0.06913,0.03302 -0.14654,0.05151 -0.22827,0.05151c-0.29286,0 -0.53027,-0.23741 -0.53027,-0.53027z M17.31755,34.09351c0.03302,0.06913 0.05151,0.14654 0.05151,0.22827c0,0.29286 -0.23741,0.53027 -0.53027,0.53027c-0.29286,0 -0.53027,-0.23741 -0.53027,-0.53027c0,-0.08173 0.01849,-0.15913 0.05151,-0.22827c-0.06913,0.03302 -0.14654,0.05151 -0.22827,0.05151c-0.29286,0 -0.53027,-0.23741 -0.53027,-0.53027c0,-0.29286 0.23741,-0.53027 0.53027,-0.53027c0.08173,0 0.15913,0.01849 0.22827,0.05151c-0.03302,-0.06913 -0.05151,-0.14654 -0.05151,-0.22827c0,-0.29286 0.23741,-0.53027 0.53027,-0.53027c0.29286,0 0.53027,0.23741 0.53027,0.53027c0,0.08173 -0.01849,0.15913 -0.05151,0.22827c0.06913,-0.03302 0.14654,-0.05151 0.22827,-0.05151c0.29286,0 0.53027,0.23741 0.53027,0.53027c0,0.29286 -0.23741,0.53027 -0.53027,0.53027c-0.08173,0 -0.15913,-0.01849 -0.22827,-0.05151z M30.27234,9.04547c0.08173,0 0.15913,0.01849 0.22827,0.05151c-0.03302,-0.06913 -0.05151,-0.14654 -0.05151,-0.22827c0,-0.08173 0.01849,-0.15913 0.05151,-0.22827c-0.06913,0.03302 -0.14654,0.05151 -0.22827,0.05151c-0.08173,0 -0.15913,-0.01849 -0.22827,-0.05151c0.03302,0.06913 0.05151,0.14654 0.05151,0.22827c0,0.08173 -0.01849,0.15913 -0.05151,0.22827c0.06913,-0.03302 0.14654,-0.05151 0.22827,-0.05151z M16.83878,33.43799c-0.08173,0 -0.15913,-0.01849 -0.22827,-0.05151c0.03302,0.06913 0.05151,0.14654 0.05151,0.22827c0,0.08173 -0.01849,0.15913 -0.05151,0.22827c0.06913,-0.03302 0.14654,-0.05151 0.22827,-0.05151c0.08173,0 0.15913,0.01849 0.22827,0.05151c-0.03302,-0.06913 -0.05151,-0.14654 -0.05151,-0.22827c0,-0.08173 0.01849,-0.15913 0.05151,-0.22827c-0.06913,0.03302 -0.14654,0.05151 -0.22827,0.05151z M17.06705,33.84301c0.05229,0.10947 0.14102,0.19821 0.2505,0.2505c-0.05229,-0.10947 -0.14102,-0.19821 -0.2505,-0.2505z M16.61052,33.38648c-0.05229,-0.10947 -0.14102,-0.19821 -0.2505,-0.2505c0.05229,0.10947 0.14102,0.19821 0.2505,0.2505z M16.36002,34.09351c0.10947,-0.05229 0.19821,-0.14102 0.2505,-0.2505c-0.10947,0.05229 -0.19821,0.14102 -0.2505,0.2505z M30.04408,8.64045c-0.05229,-0.10947 -0.14102,-0.19821 -0.2505,-0.2505c0.05229,0.10947 0.14102,0.19821 0.2505,0.2505z M29.79358,9.34748c0.10947,-0.05229 0.19821,-0.14102 0.2505,-0.2505c-0.10947,0.05229 -0.19821,0.14102 -0.2505,0.2505z M17.31755,33.13598c-0.10947,0.05229 -0.19821,0.14102 -0.2505,0.2505c0.10947,-0.05229 0.19821,-0.14102 0.2505,-0.2505z M30.75111,8.38995c-0.10947,0.05229 -0.19821,0.14102 -0.2505,0.2505c0.10947,-0.05229 0.19821,-0.14102 0.2505,-0.2505z M30.50061,9.09698c0.05229,0.10947 0.14102,0.19821 0.2505,0.2505c-0.05229,-0.10947 -0.14102,-0.19821 -0.2505,-0.2505z" fill="#ffffff" stroke-width="0" stroke-miterlimit="10" font-family="sans-serif" font-size="12"/>
    </g>
    <g id="text" transform="translate(50,50) scale(0.05,-0.05)" fill="white" stroke="black" stroke-width="1">
        <path d="M1204 784 c-55 -29 -65 -43 -50 -73 8 -14 37 -52 66 -85 l51 -58 -48 -32 c-26 -17 -62 -50 -80 -74 -27 -36 -33 -53 -33 -92 0 -41 5 -55 31 -85 56-64 141 -69 236 -15 70 40 103 85 103 140 0 56 -21 89 -124 187 -47 45 -97 101 -113 124 -25 39 -26 42 -9 54 26 20 4 26 -30 9z m147 -291 c98 -89 90 -161 -23 -195 -113 -34 -196 71-129 162 21 29 78 70 97 70 8 0 32-17 55-37z"/>
        <path d="M122 758 c3-7 20-15 38-18 27-4 43-16 72-55 21-27 38-58 38-67 0-10-47-72-103-138-119-138-136-164-121-188 27-41 61-55 141-56 74-1 82 1 157 43 75 42 80 44 90 26 6-11 23-32 38-47 24-26 32-28 102-28 85 0 97 12 43 45-25 16-50 55-114 182-145 289-168 313-303 313-61 0-81-3-78-12z m238-300 c32-66 37-84 27-96-20-24-109-62-147-62-41 0-80 24-80 49 0 34 122 191 149 191 7 0 29-37 51-82z"/>
        <path d="M2320 759 c-62-12-139-52-193-100-79-69-130-202-113-293 17-89 118-144 241-133 98 9 215 61 191 84-3 4-29-1-56-11-121-44-221-7-265 96-56 135 70 305 230 311 24 1 49-4 59-12 15-13 15-16-6-38 l-23-25 29 4 c38 4 71 47 62 81-10 41-64 54-156 36z"/>
        <path d="M717 594 c-4-4 3-14 14-22 21-14 21-21 17-161-3-80-9-154-13-164-6-14-2-17 23-17 61 0 62 2 62 117 l0 106 49 48 c54 55 101 66 121 30 23-44 3-75-96-148 l-29-21 50-52 c67-69 92-82 139-69 36 10 50 29 20 29-19 0-124 89-124 106 0 7 18 27 40 44 48 38 74 83 66 115-20 78-118 72-207-12 l-27-25-7 41 c-4 23-10 43-13 45-16 8-79 16-85 10z"/>
        <path d="M2566 591 c-4-5 1-14 10-19 14-8 15-30 12-175 l-3-167 31 0 c48 0 53 13 47 110-5 79-4 92 17 124 26 43 85 86 117 86 13 0 30-11 39-25 23-36 9-64-60-115-31-22-56-46-56-52 0-14 86-95 121-113 21-11 34-12 63-3 38 12 49 28 19 28-10 0-45 24-78 54 l-60 54 30 23 c63 49 85 80 85 119 0 45-24 70-69 70-39 0-97-29-130-64-28-30-41-26-41 12 0 15-4 32-8 38-10 15-79 27-86 15z"/>
        <path d="M1625 580 c3-5 15-10 25-10 19 0 70-57 70-79 0-6-32-48-71-93-39-45-75-90-80-100-14-26 19-54 76-62 42-7 55-4 111 24 l63 33 26-32 c23-27 33-31 75-31 55 0 71 12 36 28-16 7-44 51-87 138-35 70-78 143-95 161-29 30-36 33-93 33-39 0-60-4-56-10z m154-195 c28-53 27-62-11-85-53-32-118-25-118 14 0 25 89 131 100 119 5-4 17-26 29-48z"/>
        <path d="M3045 580 c3-5 15-10 25-10 12 0 31-16 46-40 l27-40-24-29 c-13-16-51-62-83-101-66-80-67-95-5-117 45-17 102-8 156 24 l45 26 30-31 c25-28 36-32 79-32 54 0 61 10 26 33-12 8-51 71-85 141-35 69-76 139-92 156-25 27-34 30-90 30-38 0-59-4-55-10z m151-191 c14-28 23-58 20-65-7-18-66-44-99-44-13 0-31 6-41 13-16 12-17 17-6 38 18 34 81 109 91 109 5 0 20-23 35-51z"/>
        <path d="M3442 583 c-20-4-20-6-7-20 22-21 20-453-2-495-12-25-12-28 3-28 8 0 29 13 45 29 l29 29 0 146 0 146 28 0 c43 0 103 20 96 32-4 6-28 8-65 4 l-59-7 0 40 c0 32 6 44 31 65 40 34 73 41 119 26 60-20 101 9 44 30-43 17-99 11-146-14 l-44-23-10 21 c-9 22-24 26-62 19z"/>
        <path d="M3865 581 c-32-8-75-29-75-36 0-3 28-4 63-2 l62 2 6-150 c3-82 7-151 7-152 7-11 46 1 69 21 25 22 26 25 11 31-16 6-18 22-18 126 0 119 0 120 26 129 14 6 47 10 74 10 53 0 80 7 80 21 0 11-261 10-305 0z"/>
    </g>
</svg>
